# xmcd
#
# Track frame offsets: 
#        150
#        14336
#        29012
#        42652
#        59449
#        74288
#        89833
#        108436
#        127594
#        136230
#        151655
#
# Disc length: 2189 seconds
#
# Revision: 0
# Processed by: cddbd v1.5.2PL0 Copyright (c) Steve Scherf et al.
# Submitted via: ExactAudioCopy v1.3
#
DISCID=94088b0b
DTITLE=Waylon Jennings - New Stuff
DYEAR=2017
DGENRE=Country
TTITLE0=Good Time
TTITLE1=The Best Side Of Me
TTITLE2=Changin' Baby's Mind
TTITLE3=World By The Tail
TTITLE4=Along For The Ride
TTITLE5=What Good Would It Do
TTITLE6=A Few Decembers Ago
TTITLE7=Muhammed Ali
TTITLE8=Mickey
TTITLE9=Billy, Whitey, And Me
TTITLE10=Talk Good Boogie
EXTD=
EXTT0=
EXTT1=
EXTT2=
EXTT3=
EXTT4=
EXTT5=
EXTT6=
EXTT7=
EXTT8=
EXTT9=
EXTT10=
PLAYORDER=
